<svg xmlns="http://www.w3.org/2000/svg" xmlns:xlink="http://www.w3.org/1999/xlink" width="24" height="24" preserveAspectRatio="xMidYMid meet" viewBox="0 0 24 24" style="-ms-transform: rotate(360deg); -webkit-transform: rotate(360deg); transform: rotate(360deg);"><path d="M20 19h-1V5c0-.55-.45-1-1-1h-4c0-.55-.45-1-1-1H6c-.55 0-1 .45-1 1v15H4c-.55 0-1 .45-1 1s.45 1 1 1h9c.55 0 1-.45 1-1V6h3v14c0 .55.45 1 1 1h2c.55 0 1-.45 1-1s-.45-1-1-1zm-8-6h-2v-2h2v2z" fill="black"/><rect x="0" y="0" width="24" height="24" fill="rgba(0, 0, 0, 0)" /></svg>