<svg xmlns="http://www.w3.org/2000/svg" xmlns:xlink="http://www.w3.org/1999/xlink" width="36" height="36" preserveAspectRatio="xMidYMid meet" viewBox="0 0 36 36" style="-ms-transform: rotate(360deg); -webkit-transform: rotate(360deg); transform: rotate(360deg);"><path d="M31 8h-9v25h11V10a2 2 0 0 0-2-2zm-5 17h-2v-2h2zm0-5h-2v-2h2zm0-5h-2v-2h2zm4 10h-2v-2h2zm0-5h-2v-2h2zm0-5h-2v-2h2z" class="clr-i-solid clr-i-solid-path-1" fill="#626262"/><path d="M17.88 3H6.12A2.12 2.12 0 0 0 4 5.12V33h5v-3h6v3h5V5.12A2.12 2.12 0 0 0 17.88 3zM9 25H7v-2h2zm0-5H7v-2h2zm0-5H7v-2h2zm0-5H7V8h2zm4 15h-2v-2h2zm0-5h-2v-2h2zm0-5h-2v-2h2zm0-5h-2V8h2zm4 15h-2v-2h2zm0-5h-2v-2h2zm0-5h-2v-2h2zm0-5h-2V8h2z" class="clr-i-solid clr-i-solid-path-2" fill="#626262"/><rect x="0" y="0" width="36" height="36" fill="rgba(0, 0, 0, 0)" /></svg>