<svg xmlns="http://www.w3.org/2000/svg" xmlns:xlink="http://www.w3.org/1999/xlink" version="1.1" x="0px" y="0px" viewBox="0 0 100 125" enable-background="new 0 0 100 100" xml:space="preserve"><g><path d="M53.258,32.971c0-1.797-1.462-3.257-3.259-3.257c-1.795,0-3.255,1.46-3.255,3.257v23.491c0,1.797,1.46,3.258,3.255,3.258   c1.797,0,3.259-1.461,3.259-3.258V32.971z"/><path d="M50.771,11.828V5.764c0-0.426-0.346-0.771-0.772-0.771c-0.424,0-0.769,0.344-0.769,0.771v6.063   c-5.808,0.396-10.396,5.229-10.396,11.137c0,4.649,2.842,8.634,6.883,10.313v-0.307c0-2.363,1.921-4.284,4.282-4.284   c2.363,0,4.285,1.921,4.285,4.284v0.306c4.04-1.68,6.883-5.665,6.883-10.313C61.167,17.056,56.578,12.224,50.771,11.828z    M49.999,21.707c-1.461,0-2.651-1.189-2.651-2.652c0-1.192,0.798-2.192,1.882-2.524v1.076c0,0.424,0.345,0.771,0.769,0.771   c0.426,0,0.772-0.346,0.772-0.771v-1.076c1.084,0.332,1.881,1.332,1.881,2.524C52.652,20.518,51.463,21.707,49.999,21.707z"/><path d="M86.557,55.727H71.619c-3.213,0-5.912,3.592-6.729,8.479l1.87,0.327l-18.871-0.6c-1.607,0.046-3.052,0.708-4.127,1.747   c-0.541,0.557-0.993,1.198-1.343,1.898c-0.379,0.827-0.587,1.747-0.564,2.717c0.079,3.35,2.867,6.075,6.216,6.075l0.188-0.004   l0.041,0.001l15.423,1.079l7.977-0.427l-6.953,1.068l-16.516,0.969l-0.16,0.002c-4.798,0-8.792-3.903-8.904-8.7   c-0.029-1.238,0.199-2.425,0.632-3.509l-14.301-5.354c-3.913-1.465-7.917-0.432-8.942,2.306c-0.193,0.516-0.266,1.056-0.232,1.601   l-0.858-0.261c-4.027-1.116-7.986,0.493-8.846,3.594c-0.847,3.061,1.651,6.427,5.593,7.584c-0.117,0.237-0.221,0.481-0.292,0.743   c-0.83,2.993,1.762,6.325,5.789,7.441l15.469,4.684C37.066,92.723,43.666,95,52.99,95c9.851,0,18.674-2.824,24.004-6.923h9.563   c3.859,0,6.988-5.177,6.988-11.565v-9.22C93.545,60.904,90.416,55.727,86.557,55.727z"/></g><text x="0" y="115" fill="#000000" font-size="5px" font-weight="bold" font-family="'Helvetica Neue', Helvetica, Arial-Unicode, Arial, Sans-serif">Created by nopixel</text><text x="0" y="120" fill="#000000" font-size="5px" font-weight="bold" font-family="'Helvetica Neue', Helvetica, Arial-Unicode, Arial, Sans-serif">from the Noun Project</text></svg>