<svg xmlns="http://www.w3.org/2000/svg" xmlns:xlink="http://www.w3.org/1999/xlink" width="36" height="36" preserveAspectRatio="xMidYMid meet" viewBox="0 0 36 36" style="-ms-transform: rotate(360deg); -webkit-transform: rotate(360deg); transform: rotate(360deg);"><path class="clr-i-outline clr-i-outline-path-1" d="M18 2a16 16 0 1 0 16 16A16 16 0 0 0 18 2zm0 30a14 14 0 1 1 14-14a14 14 0 0 1-14 14z" fill="#626262"/><path class="clr-i-outline clr-i-outline-path-2" d="M28 12.1a1 1 0 0 0-1.41 0l-11.1 11.05l-6-6A1 1 0 0 0 8 18.53L15.49 26L28 13.52a1 1 0 0 0 0-1.42z" fill="#626262"/><rect x="0" y="0" width="36" height="36" fill="rgba(0, 0, 0, 0)" /></svg>